<svg width="24" height="24" viewBox="0 0 24 24" fill="none" xmlns="http://www.w3.org/2000/svg">
<path d="M15.2742 4.00484H15.2267L14.9067 4.32751C18.1904 5.29552 19.7791 6.80724 19.7791 6.80724C17.6629 5.72952 15.7557 5.19066 13.8486 4.97285C12.4705 4.75505 11.0924 4.8696 9.9281 4.97285H9.61129C8.8668 4.97285 7.28278 5.29552 5.16019 6.15867C4.42045 6.48618 3.99594 6.70076 3.99594 6.70076C3.99594 6.70076 5.58313 5.08418 9.08065 4.22103L8.8668 4.00323C8.8668 4.00323 6.21832 3.89997 3.35916 6.05219C3.35916 6.05219 0.5 11.1246 0.5 17.3779C0.5 17.3779 2.08402 20.1852 6.42899 20.2917C6.42899 20.2917 7.0626 19.4317 7.70413 18.6751C5.26474 17.92 4.31433 16.4099 4.31433 16.4099C4.31433 16.4099 4.52659 16.5164 4.84497 16.7326H4.94001C4.98753 16.7326 5.00971 16.7568 5.03506 16.781V16.7907C5.0604 16.8165 5.08258 16.8391 5.1301 16.8391C5.65282 17.0585 6.17555 17.2747 6.60324 17.4844C7.5179 17.8832 8.47462 18.1734 9.45448 18.3492C10.9276 18.567 12.6162 18.6719 14.5392 18.3492C15.4896 18.1314 16.44 17.9184 17.3904 17.486C18.0082 17.1634 18.7685 16.8407 19.6033 16.297C19.6033 16.297 18.6529 17.8071 16.1105 18.5621C16.6333 19.314 17.3698 20.1755 17.3698 20.1755C21.7164 20.0787 23.405 17.2715 23.5 17.3909C23.5 11.1472 20.625 6.0651 20.625 6.0651C18.0351 4.10648 15.6116 4.03227 15.1839 4.03227L15.2726 4L15.2742 4.00484ZM15.5403 11.1246C16.6539 11.1246 17.552 12.0926 17.552 13.2784C17.552 14.4723 16.6491 15.4403 15.5403 15.4403C14.4315 15.4403 13.5286 14.4723 13.5286 13.2881C13.5317 12.0942 14.4362 11.1294 15.5403 11.1294V11.1246ZM8.34408 11.1246C9.45289 11.1246 10.3494 12.0926 10.3494 13.2784C10.3494 14.4723 9.44656 15.4403 8.33774 15.4403C7.22892 15.4403 6.32603 14.4723 6.32603 13.2881C6.32603 12.0942 7.22892 11.1294 8.33774 11.1294L8.34408 11.1246Z" fill="#737E8D"/>
</svg>
