<svg width="289" height="328" viewBox="0 0 289 328" fill="none" xmlns="http://www.w3.org/2000/svg">
<ellipse cx="139.511" cy="36.5925" rx="139.511" ry="36.5925" transform="matrix(0.968389 -0.249444 0.249437 0.968391 0 257.127)" fill="#7FA2FD"/>
<mask id="mask0_1943_12455" style="mask-type:alpha" maskUnits="userSpaceOnUse" x="8" y="208" width="272" height="100">
<ellipse cx="139.511" cy="36.5925" rx="139.511" ry="36.5925" transform="matrix(0.968389 -0.249444 0.249437 0.968391 0 257.129)" fill="#7FA2FD"/>
</mask>
<g mask="url(#mask0_1943_12455)">
<ellipse cx="139.511" cy="36.5925" rx="139.511" ry="36.5925" transform="matrix(0.968389 -0.249444 0.249437 0.968391 81 212.602)" fill="#23262F"/>
</g>
<path d="M131.681 140.09L24.3226 99.3447L26.3594 78.6582L133.718 119.404L131.681 140.09Z" fill="#2C53FF"/>
<g filter="url(#filter0_b_1943_12455)">
<path d="M119.987 256.353L23.3856 217.759L29.0625 102.953L131.084 142.301L119.987 256.353Z" fill="url(#paint0_linear_1943_12455)"/>
</g>
<path d="M80.434 241.261L60.5587 233.613L67.5547 117.307L88.6201 124.433L80.434 241.261Z" fill="#F7F7F7"/>
<g style="mix-blend-mode:multiply">
<path d="M129.929 153.025L30.5306 115.397L31.1641 102.953L131.138 140.811L129.929 153.025Z" fill="#2C53FF"/>
</g>
<path d="M26.8592 77.6731L138.477 74.57L134.162 118.329L26.8592 77.6731Z" fill="#2A64FB"/>
<path d="M26.8438 78.6562C35.91 81.5613 44.8853 84.6863 53.8585 87.8323C62.8317 90.9782 71.7182 94.3025 80.6604 97.5287C89.6026 100.755 98.3469 104.124 107.303 107.668L120.539 112.906C124.943 114.722 129.357 116.454 133.755 118.332C129.198 116.897 124.72 115.346 120.214 113.855L106.739 109.176C97.8806 106.025 88.8789 102.706 79.9367 99.4799C70.9945 96.2537 62.2501 92.8851 53.294 89.3403C44.338 85.7954 35.5999 82.3643 26.8438 78.6562Z" fill="white"/>
<path d="M85.6735 123.203L64.2907 114.867L66.4219 92.9531L87.8047 101.289L85.6735 123.203Z" fill="white"/>
<path d="M242.522 126.64L131.103 137.148L133.043 117.442L244.462 106.934L242.522 126.64Z" fill="white" stroke="black" stroke-width="0.960529"/>
<path d="M245.004 105.999C235.7 107.285 226.417 108.363 217.138 109.399C207.859 110.435 198.599 111.284 189.192 112.219C179.786 113.153 170.532 113.94 161.18 114.565L147.158 115.556C142.543 115.824 137.787 116.137 133.088 116.33C137.742 115.666 142.382 115.148 147.03 114.547L160.952 112.951C170.231 111.914 179.491 111.066 188.762 110.113C198.032 109.16 207.445 108.395 216.774 107.767C226.104 107.138 235.603 106.427 245.004 105.999Z" fill="white"/>
<path d="M116.551 253.592L116.491 254.204L117.096 254.138L218.507 243.065L218.858 243.026L218.91 242.674L235.426 129.374L235.518 128.745L234.889 128.805L128.059 139.126L127.684 139.162L127.647 139.54L116.551 253.592Z" fill="white" stroke="black" stroke-width="0.960529"/>
<path d="M177.975 248.151L158.29 250.102L172.59 134.244L194.888 132.162L177.975 248.151Z" fill="#23262F" stroke="black" stroke-width="0.960529"/>
<g style="mix-blend-mode:multiply">
<path d="M129.059 150.884L233.136 141.011L234.95 128.728L130.268 138.669L129.059 150.884Z" fill="#E9E9E9"/>
</g>
<path d="M245.431 105.383L137.414 72.2012L133.099 115.96L245.431 105.383Z" fill="#2A64FB"/>
<path d="M200.655 130.856L179.217 133.004L181.252 112.074L202.691 109.925L200.655 130.856Z" fill="#23262F" stroke="black" stroke-width="0.960529"/>
<path d="M203.533 109.229L100.896 74.5681L88.2032 74.9132L181.603 111.351L203.533 109.229Z" fill="white"/>
<path d="M66.8818 91.2571L173.677 84.6262L185.964 88.3146L87.8068 99.1148L66.8818 91.2571Z" fill="white"/>
<path d="M117.312 92.599C123.281 93.4223 129.219 94.0885 135.066 94.7421L135.237 90.3968C122.337 88.6943 109.582 85.7639 97.1659 81.65C90.1911 79.5627 83.5322 76.5011 77.4137 72.5686C64.7976 64.8865 55.9626 50.1895 54.5234 34.2408L50.6172 38.2895L45.4204 34.5362C47.0969 53.2482 57.5862 70.62 72.7787 79.8152C79.7052 83.817 87.2226 86.729 95.0237 88.4323C102.386 90.2231 109.827 91.6143 117.312 92.599Z" fill="#D6DCF9"/>
<path d="M85.4892 83.5675C93.7384 89.0113 103.514 91.7371 113.25 91.3082L116.989 91.2751C123.956 91.2042 132.571 91.3621 136.75 85.3827C137.365 84.607 137.737 83.6731 137.825 82.6828C137.767 81.7822 137.505 80.8942 137.058 80.0806C132.236 68.3682 123.491 54.7641 112.036 48.0279C107.934 45.6032 101.325 41.9913 96.7075 44.3761C95.7234 44.9357 94.8653 45.6701 94.1764 46.5426C89.5541 51.8115 85.2238 57.3138 81.202 63.0287C79.695 65.1606 76.5563 68.3249 76.2808 70.9149C76.0054 73.5049 78.4638 76.8499 80.1546 78.7852C81.7243 80.5803 83.517 82.1874 85.4892 83.5675Z" fill="#D6DCF9"/>
<mask id="mask1_1943_12455" style="mask-type:luminance" maskUnits="userSpaceOnUse" x="74" y="43" width="66" height="49">
<path d="M85.3448 82.182L85.3449 82.1818C83.2779 80.7552 81.3884 79.1164 79.723 77.3047L79.7229 77.3046C78.8288 76.3312 77.7176 74.9975 76.8537 73.5844C76.0011 72.1898 75.3335 70.6281 75.4555 69.2338C75.5757 67.8591 76.4861 66.4385 77.4706 65.1741C77.969 64.534 78.5058 63.9108 79.0042 63.3323L79.0121 63.323C79.5164 62.7376 79.9769 62.2026 80.3355 61.7263L85.3448 82.182ZM85.3448 82.182L85.356 82.1893C93.9408 87.8043 104.015 90.8776 113.967 90.9212L85.3448 82.182Z" fill="white" stroke="white" stroke-width="0.960529"/>
</mask>
<g mask="url(#mask1_1943_12455)">
<path d="M130.964 74.6745L118.912 67.6168L126.29 79.0304C122.995 77.1962 119.492 75.7568 115.879 74.7531C113.894 74.2241 111.893 73.7874 109.883 73.4448C108.05 73.2818 106.216 72.9599 104.408 72.4836C107.871 77.0987 111.73 81.4821 115.943 85.5854C117.974 87.7232 120.375 89.5522 123.027 90.9828C125.708 92.2537 128.678 92.6904 131.433 92.2189C134.187 91.7473 136.557 90.3964 138.14 88.3956C139.713 85.8751 140.498 82.9484 140.42 79.8919C140.649 77.0868 140.191 74.1933 139.079 71.4126C137.583 68.4615 135.486 65.7399 132.912 63.4071C130.427 61.0537 126.261 59.7899 123.109 58.3631C126.837 63.4258 129.573 68.9629 131.177 74.6907L130.964 74.6745Z" fill="url(#paint1_linear_1943_12455)"/>
<path d="M77.1624 69.1114C79.1454 67.7942 81.646 67.1245 84.2948 67.2014C92.4065 67.5677 101.562 72.2933 108.911 75.7592C113.691 78.0012 118.361 80.4484 122.903 83.0905C127.286 85.3172 131.331 88.0798 134.896 91.2812C133.714 90.0667 128.156 91.7829 126.985 92.1641C124.031 93.0884 120.922 93.7025 117.719 93.9948C115.007 94.4489 112.162 94.4636 109.319 94.0382C105.84 93.2009 102.417 92.0925 99.0957 90.7271C95.636 89.6432 92.3472 88.059 89.3787 86.0466C86.4661 83.804 83.3589 81.6683 80.3759 79.4339C76.4063 76.4559 72.3847 72.3933 77.1624 69.1114Z" fill="#23262F"/>
</g>
<path d="M193.304 97.0495C184.228 100.088 174.19 100.064 164.796 96.9793L161.164 95.9229C154.396 93.9454 146.003 91.7423 143.062 84.7745C142.612 83.8511 142.43 82.8403 142.534 81.8522C142.755 80.9983 143.155 80.205 143.713 79.5201C150.703 69.4475 161.852 58.605 174.296 55.1864C178.778 53.9534 185.81 52.2572 189.917 55.831C190.773 56.6406 191.468 57.5917 191.964 58.6329C195.458 65.0075 198.619 71.5419 201.447 78.2364C202.481 80.721 204.951 84.6639 204.698 87.257C204.446 89.8502 201.387 92.4293 199.367 93.8716C197.508 95.1799 195.471 96.2477 193.304 97.0495Z" fill="#D6DCF9"/>
<mask id="mask2_1943_12455" style="mask-type:luminance" maskUnits="userSpaceOnUse" x="142" y="55" width="64" height="44">
<path d="M194.143 96.8934C185.015 99.3657 174.833 98.8784 165.229 95.5094L161.519 94.3364C154.605 92.1419 146.038 89.6577 142.881 82.8917C142.402 81.9922 142.191 81.0219 142.273 80.0866C142.475 79.2842 142.861 78.5478 143.409 77.9219C150.246 68.6602 161.281 58.858 173.816 56.18C178.331 55.2137 185.421 53.9247 189.675 57.5151C190.564 58.325 191.292 59.2621 191.822 60.2759C195.524 66.503 198.894 72.867 201.93 79.3678C203.041 81.7799 205.644 85.6458 205.453 88.1017C205.262 90.5576 202.225 92.8704 200.212 94.1495C198.36 95.3086 196.32 96.2306 194.143 96.8934Z" fill="white"/>
</mask>
<g mask="url(#mask2_1943_12455)">
<path d="M150.51 75.9746L163.322 73.2806L154.296 81.8164C157.784 81.1727 161.415 80.9854 165.084 81.2598C167.128 81.4351 169.175 81.7089 171.214 82.0802C173.052 82.6182 174.922 82.9963 176.796 83.2091C172.724 86.5072 168.295 89.4368 163.561 91.9647C161.256 93.3415 158.639 94.29 155.839 94.7638C153.035 95.0679 150.079 94.4624 147.472 93.0498C144.865 91.6371 142.765 89.504 141.528 87.0108C140.384 84.0128 140.069 80.8924 140.613 77.9446C140.844 75.1071 141.76 72.426 143.297 70.0852C145.205 67.7313 147.663 65.8087 150.526 64.4299C153.305 63.0003 157.553 63.2133 160.84 62.9167C156.435 66.5524 152.923 70.9936 150.483 76.0125L150.51 75.9746Z" fill="url(#paint2_linear_1943_12455)"/>
<path d="M203.301 86.7271C201.581 84.7877 199.254 83.3071 196.664 82.5039C188.711 80.1719 179.071 81.7408 171.342 82.6745C166.334 83.2726 161.398 84.1064 156.556 85.1725C151.938 85.892 147.562 87.24 143.579 89.17C144.946 88.3832 150.059 91.8921 151.137 92.6511C153.871 94.5348 156.807 96.1643 159.886 97.508C162.445 98.8493 165.204 99.8055 168.032 100.331C171.552 100.671 175.059 100.726 178.51 100.496C182.049 100.588 185.503 100.136 188.713 99.1614C191.927 97.9479 195.292 96.8991 198.528 95.7091C202.866 94.1263 207.359 91.4935 203.301 86.7271Z" fill="#23262F"/>
</g>
<path d="M176.042 60.3077C172.572 68.9631 166.114 76.099 157.7 80.5757L154.533 82.3657C148.586 85.799 141.498 90.1442 134.21 87.1675C133.211 86.8228 132.314 86.2277 131.617 85.4462C131.046 84.6505 130.662 83.7509 130.493 82.8139C127.324 70.6624 126.194 54.8684 131.436 43.5299C133.235 39.4528 136.533 33.1974 141.943 32.8792C143.149 32.8723 144.358 33.0782 145.509 33.4868C152.69 35.6455 159.792 38.128 166.773 40.9057C169.383 41.9603 174.023 43.074 175.88 45.1392C177.737 47.2044 177.707 51.126 177.482 53.6822C177.282 55.9518 176.799 58.176 176.042 60.3077Z" fill="#D6DCF9"/>
<mask id="mask3_1943_12455" style="mask-type:luminance" maskUnits="userSpaceOnUse" x="127" y="33" width="51" height="54">
<path d="M176.564 61.5275C173.236 69.7247 166.812 76.3093 158.319 80.2297L155.124 81.8067C149.127 84.8378 141.987 88.6951 134.454 85.4667C133.422 85.0854 132.49 84.467 131.757 83.6782C131.152 82.8817 130.735 81.9937 130.539 81.0801C126.984 69.1838 125.421 53.8658 130.492 43.1611C132.228 39.3078 135.442 33.4215 140.969 33.3751C142.203 33.4266 143.445 33.6839 144.633 34.1343C152.036 36.567 159.367 39.3087 166.58 42.3299C169.278 43.475 174.053 44.7752 176.007 46.8606C177.961 48.946 178.03 52.7345 177.866 55.194C177.72 57.3776 177.283 59.5039 176.564 61.5275Z" fill="white"/>
</mask>
<g mask="url(#mask3_1943_12455)">
<path d="M132.025 75.6772L137.366 64.9741C137.952 69.1754 138.512 73.3936 139.098 77.5948C140.64 74.7536 142.624 72.1633 144.998 69.8932C146.29 68.6334 147.674 67.4541 149.142 66.3613C149.651 65.9608 153.346 63.9282 153.334 63.4566C153.641 68.7494 153.438 73.9971 152.727 79.1403C152.46 81.7758 151.643 84.2794 150.319 86.523C148.936 88.6339 146.727 90.1514 144.063 90.8208C141.4 91.4902 138.443 91.2707 135.691 90.1991C132.566 88.64 129.831 86.4283 127.745 83.7731C125.561 81.4683 123.911 78.8135 122.915 76.0012C122.094 72.8948 121.961 69.7493 122.525 66.7559C122.991 63.8083 125.661 61.1029 127.331 58.6679C127.722 64.4408 129.296 70.2348 131.971 75.753L132.025 75.6772Z" fill="url(#paint3_linear_1943_12455)"/>
<path d="M172.747 44.9341C169.995 44.4966 167.273 44.8656 164.987 45.9865C158.026 49.6118 153.542 57.6928 149.641 63.8804C147.096 67.9457 144.818 72.1638 142.815 76.5158C140.626 80.3578 139.148 84.5607 138.433 88.9777C138.557 87.3502 144.803 86.7233 146.147 86.6149C149.484 86.2661 152.722 85.5824 155.806 84.5758C158.578 83.9014 161.133 82.7681 163.353 81.2283C165.818 79.0284 168.015 76.5915 169.914 73.9504C172.127 71.5363 173.814 68.7373 174.899 65.6763C175.781 62.4036 176.904 59.1736 177.86 55.8923C179.044 51.5445 179.46 46.1268 172.747 44.9341Z" fill="#23262F"/>
</g>
<path d="M158.202 96.1008C152.256 95.2806 146.347 94.3127 140.507 93.3542L141.203 89.0812C154.081 90.9357 167.055 91.5543 179.928 90.9276C187.164 90.8073 194.284 89.6462 201.045 87.4837C214.856 83.4469 226.228 71.5372 230.712 56.4054L233.731 61.4094L239.378 59.1519C234.106 76.9056 220.539 90.9591 203.974 95.7737C196.459 97.7858 188.579 98.574 180.656 98.1059C173.159 97.8447 165.663 97.1752 158.202 96.1008Z" fill="#D6DCF9"/>
<path d="M146.609 95.9379C144.62 96.5835 142.488 96.818 140.351 96.6263C135.544 96.4218 127.525 95.7522 124.343 91.4434C120.823 86.585 126.478 82.1405 131.063 81.5492C136.608 80.8279 149.476 82.2323 150.926 89.1224C151.15 90.5973 150.845 92.0747 150.061 93.3128C149.277 94.5509 148.06 95.4764 146.609 95.9379Z" fill="#23262F"/>
<path opacity="0.1" d="M117.06 253.345L234.985 128.995L218.47 242.272L117.06 253.345Z" fill="#231F20"/>
<path d="M130.341 140.116C129.799 149.875 128.985 159.578 128.114 169.297C127.243 179.016 126.153 188.709 125.065 198.379C123.978 208.05 122.885 217.765 121.469 227.396L119.568 241.824C118.803 246.655 118.122 251.474 117.277 256.273C117.492 251.399 117.899 246.547 118.226 241.663L119.476 227.089C120.345 217.393 121.462 207.703 122.443 197.997C123.424 188.291 124.621 178.634 126.012 168.977C127.404 159.32 128.676 149.74 130.341 140.116Z" fill="white"/>
<path d="M253.017 35.6641L253.58 32.2623L254.282 36.1048C255.452 42.5104 260.345 47.5921 266.702 49.0037C260.169 50.8891 255.175 56.1735 253.662 62.8025L252.966 65.8527L252.612 63.2027C251.697 56.3429 246.909 50.6257 240.316 48.5215C246.846 47.3597 251.935 42.2082 253.017 35.6641Z" fill="#23262F"/>
<path d="M207.658 2.80761L207.943 0.311185L208.594 3.08228C209.68 7.70181 213.426 11.222 218.104 12.0177C213.418 13.6281 209.976 17.6563 209.117 22.5363L208.721 24.7817L208.367 22.8658C207.451 17.9064 203.757 13.9199 198.882 12.6286C203.593 11.545 207.109 7.61004 207.658 2.80761Z" fill="#23262F"/>
<defs>
<filter id="filter0_b_1943_12455" x="19.1847" y="98.755" width="116.099" height="161.797" filterUnits="userSpaceOnUse" color-interpolation-filters="sRGB">
<feFlood flood-opacity="0" result="BackgroundImageFix"/>
<feGaussianBlur in="BackgroundImageFix" stdDeviation="2.09905"/>
<feComposite in2="SourceAlpha" operator="in" result="effect1_backgroundBlur_1943_12455"/>
<feBlend mode="normal" in="SourceGraphic" in2="effect1_backgroundBlur_1943_12455" result="shape"/>
</filter>
<linearGradient id="paint0_linear_1943_12455" x1="37.9177" y1="126.775" x2="78.708" y2="216.109" gradientUnits="userSpaceOnUse">
<stop stop-color="#2A64FB"/>
<stop offset="1" stop-color="#618DFF"/>
</linearGradient>
<linearGradient id="paint1_linear_1943_12455" x1="123.833" y1="58.4901" x2="118.182" y2="90.6765" gradientUnits="userSpaceOnUse">
<stop stop-color="#94B2FF"/>
<stop offset="1" stop-color="#5A87F9"/>
</linearGradient>
<linearGradient id="paint2_linear_1943_12455" x1="160.045" y1="62.7772" x2="154.381" y2="95.0478" gradientUnits="userSpaceOnUse">
<stop stop-color="#94B2FF"/>
<stop offset="1" stop-color="#5A87F9"/>
</linearGradient>
<linearGradient id="paint3_linear_1943_12455" x1="138.583" y1="60.6662" x2="133.36" y2="90.0738" gradientUnits="userSpaceOnUse">
<stop stop-color="#94B2FF"/>
<stop offset="1" stop-color="#5A87F9"/>
</linearGradient>
</defs>
</svg>
