<svg width="24" height="24" viewBox="0 0 24 24" fill="none" xmlns="http://www.w3.org/2000/svg">
<g clip-path="url(#clip0_8778_273029)">
<path d="M14.8038 5.53766C14.1297 6.33752 13.0513 6.96662 11.9728 6.87675C11.838 5.79829 12.3682 4.64793 12.9884 3.94693C13.6624 3.1291 14.8397 2.54494 15.8014 2.5C15.9092 3.61441 15.4688 4.71983 14.8038 5.53766ZM15.7834 7.08345C14.2196 6.99358 12.8805 7.97318 12.1436 7.97318C11.3886 7.97318 10.2562 7.12839 9.016 7.15535C7.40728 7.18231 5.9154 8.09001 5.09756 9.53695C3.40796 12.4398 4.65719 16.7267 6.29287 19.0903C7.09273 20.2586 8.04538 21.5438 9.30359 21.4989C10.4989 21.4539 10.9662 20.726 12.4042 20.726C13.8511 20.726 14.2735 21.4989 15.5317 21.4809C16.8349 21.4539 17.6527 20.3125 18.4526 19.1442C19.3603 17.8141 19.7378 16.529 19.7557 16.4571C19.7288 16.4301 17.2393 15.4775 17.2124 12.6016C17.1854 10.193 19.1806 9.05164 19.2704 8.97974C18.147 7.30813 16.3945 7.12839 15.7834 7.08345Z" fill="#23262F"/>
</g>
<defs>
<clipPath id="clip0_8778_273029">
<rect width="24" height="24" fill="white"/>
</clipPath>
</defs>
</svg>
