<svg width="24" height="24" viewBox="0 0 24 24" fill="none" xmlns="http://www.w3.org/2000/svg">
<rect x="4" y="6.43604" width="15" height="12" fill="white"/>
<path fill-rule="evenodd" clip-rule="evenodd" d="M12 0C18.6277 0 24 5.37231 24 12C24 18.6277 18.6277 24 12 24C5.37231 24 0 18.6277 0 12C0 5.37231 5.37231 0 12 0ZM5.2068 8.35625C5.2068 7.59656 5.812 6.975 6.56 6.975H17.44C18.188 6.975 18.8 7.59656 18.8 8.35625V16.6437C18.8 17.4034 18.188 18.025 17.44 18.025H6.56C5.812 18.025 5.2 17.4034 5.2 16.6437L5.2068 8.35625ZM12 13.1906L17.44 9.7375V8.35625L12 11.8094L6.56 8.35625V9.7375L12 13.1906Z" fill="#2483FF"/>
</svg>
