<svg width="24" height="24" viewBox="0 0 24 24" fill="none" xmlns="http://www.w3.org/2000/svg">
<g clip-path="url(#clip0_8778_273024)">
<path d="M6.91664 11.9968C6.91664 11.4139 7.00119 10.8496 7.16137 10.3195L4.15065 7.94308C3.5433 9.1496 3.2002 10.5139 3.2002 11.9643C3.2002 13.4098 3.54086 14.7903 4.14496 16.0188L7.1573 13.6521C7.00038 13.1301 6.91664 12.574 6.91664 11.9968Z" fill="#FFB900"/>
<path d="M12.3279 6.58535C13.632 6.61462 14.7849 7.1195 15.65 7.94146L18.1322 5.35363C16.6313 3.88938 14.5873 2.99994 12.2295 2.99994C8.69273 2.99994 5.63079 5.00078 4.14941 7.94309L7.16013 10.3195C7.81951 8.13252 9.75701 6.52681 12.3279 6.58535Z" fill="#FE2727"/>
<path d="M12.3279 17.4082C9.7505 17.4082 7.81057 15.831 7.15687 13.6521L4.14453 16.0188C5.62509 19.0286 8.69028 21.1213 12.2303 20.9945C14.7223 20.905 16.7289 20.1319 18.1729 18.805L15.2597 16.5952C14.4597 17.1424 13.4604 17.4082 12.3279 17.4082Z" fill="#00AC47"/>
<path d="M12.1328 10.3667V13.822H17.0599C16.746 15.0895 16.1184 16.0058 15.2598 16.5944L18.1729 18.8042C19.8836 17.2318 20.8048 14.8806 20.8048 11.9643C20.8048 11.4187 20.7617 10.8846 20.6788 10.3667" fill="#2485FC"/>
</g>
<defs>
<clipPath id="clip0_8778_273024">
<rect width="24" height="24" fill="white"/>
</clipPath>
</defs>
</svg>
