<svg width="24" height="24" viewBox="0 0 24 24" fill="none" xmlns="http://www.w3.org/2000/svg">
<mask id="mask0_9340_44508" style="mask-type:alpha" maskUnits="userSpaceOnUse" x="0" y="1" width="20" height="20">
<rect y="1" width="20" height="20" fill="#D9D9D9"/>
</mask>
<g mask="url(#mask0_9340_44508)">
<path d="M6.19655 7.22513C7.14974 6.73923 8.27799 6.73923 9.23119 7.22513C9.54316 7.38416 9.82819 7.59125 10.0758 7.8388C10.8325 8.5952 11.1812 9.66823 11.0136 10.7249C10.9587 11.0708 10.8499 11.4058 10.691 11.7179C10.2054 12.6712 9.29265 13.3344 8.23589 13.5016C7.89002 13.5563 7.53771 13.5563 7.19185 13.5016C6.13509 13.3344 5.22231 12.6712 4.73677 11.7179C4.57786 11.4058 4.46899 11.0708 4.41414 10.7249C4.24658 9.66822 4.59522 8.5952 5.3519 7.8388C5.59955 7.59125 5.88458 7.38416 6.19655 7.22513Z" fill="#ECD718"/>
<path d="M2.72705 9.18115H18.1816V18.3012C18.1816 18.7872 17.7876 19.1812 17.3016 19.1812H3.60705C3.12104 19.1812 2.72705 18.7872 2.72705 18.3012V9.18115Z" fill="#E42F2F"/>
<path d="M9.09082 9.18115H11.8181V19.1812H9.09082V9.18115Z" fill="#FF9F2E"/>
<path fill-rule="evenodd" clip-rule="evenodd" d="M5.90732 2.81885L9.08913 5.54612H11.8164L8.63459 2.81885H5.90732Z" fill="#FFC107"/>
<path fill-rule="evenodd" clip-rule="evenodd" d="M14.5435 2.81885L10.4522 6.90976L8.54883 6.02365L11.8159 2.81885H14.5435Z" fill="#FF9F2E"/>
<path d="M1.35986 5.98834C1.35986 5.74533 1.55686 5.54834 1.79986 5.54834H19.1049C19.3479 5.54834 19.5449 5.74533 19.5449 5.98834L19.5449 8.7447C19.5449 8.98771 19.3479 9.1847 19.1049 9.1847H1.79986C1.55686 9.1847 1.35986 8.98771 1.35986 8.7447L1.35986 5.98834Z" fill="#FF5C4D"/>
<path d="M9.09082 5.54834H11.8181L11.8181 9.1847H9.09082L9.09082 5.54834Z" fill="#FFC107"/>
</g>
</svg>
